<svg width="18" height="16" viewBox="0 0 18 16" fill="none" xmlns="http://www.w3.org/2000/svg">
<path fill-rule="evenodd" clip-rule="evenodd" d="M12.6001 3.6C12.6001 5.58823 10.9884 7.2 9.00015 7.2C7.01192 7.2 5.40015 5.58823 5.40015 3.6C5.40015 1.61177 7.01192 0 9.00015 0C10.9884 0 12.6001 1.61177 12.6001 3.6ZM11.4001 3.6C11.4001 4.92548 10.3256 6 9.00015 6C7.67466 6 6.60015 4.92548 6.60015 3.6C6.60015 2.27452 7.67466 1.2 9.00015 1.2C10.3256 1.2 11.4001 2.27452 11.4001 3.6Z" fill="#381E72"/>
<path d="M9.00015 9C5.11552 9 1.80571 11.297 0.544922 14.5152C0.852059 14.8202 1.1756 15.1087 1.51412 15.3792C2.45296 12.4246 5.39818 10.2 9.00015 10.2C12.6021 10.2 15.5473 12.4246 16.4862 15.3792C16.8247 15.1087 17.1482 14.8202 17.4554 14.5152C16.1946 11.2971 12.8848 9 9.00015 9Z" fill="#381E72"/>
</svg>
